<svg xmlns="http://www.w3.org/2000/svg" viewBox="0 0 800 800" role="img" aria-label="Abstract portrait placeholder">
  <defs>
    <linearGradient id="background" x1="0" x2="1" y1="0" y2="1">
      <stop offset="0" stop-color="#ede8dc" />
      <stop offset="1" stop-color="#d8d0c4" />
    </linearGradient>
    <linearGradient id="jacket" x1="0" x2="1" y1="0" y2="1">
      <stop offset="0" stop-color="#26384c" />
      <stop offset="1" stop-color="#171717" />
    </linearGradient>
  </defs>
  <rect width="800" height="800" fill="url(#background)" />
  <circle cx="400" cy="282" r="125" fill="#cfa889" />
  <path d="M238 735c18-143 93-238 162-238s144 95 162 238H238Z" fill="url(#jacket)" />
  <path d="M267 325c-23-98 34-192 129-202 100-11 169 69 155 177-19-37-61-63-112-78-63-19-116 22-172 103Z" fill="#3c302a" />
  <path d="M305 505c32 34 64 51 95 51s63-17 95-51v49c-28 39-60 58-95 58s-67-19-95-58v-49Z" fill="#efd5bf" />
  <path d="M314 361c18 70 51 107 86 107s68-37 86-107c11-42-23-96-86-96s-97 54-86 96Z" fill="#efd5bf" />
  <path d="M337 382c24 25 46 37 63 37s39-12 63-37c-6 54-27 85-63 85s-57-31-63-85Z" fill="#d9b59a" opacity=".45" />
  <circle cx="353" cy="352" r="9" fill="#30251f" />
  <circle cx="447" cy="352" r="9" fill="#30251f" />
  <path d="M370 409c23 14 39 14 62 0" fill="none" stroke="#8d5e52" stroke-width="10" stroke-linecap="round" />
  <path d="M200 735h400v65H200z" fill="#171717" opacity=".1" />
</svg>
